<?xml version="1.0" encoding="UTF-8" standalone="no"?><!DOCTYPE svg PUBLIC "-//W3C//DTD SVG 1.1//EN" "http://www.w3.org/Graphics/SVG/1.1/DTD/svg11.dtd"><svg width="100%" height="100%" viewBox="0 0 3508 2481" version="1.1" xmlns="http://www.w3.org/2000/svg" xmlns:xlink="http://www.w3.org/1999/xlink" xml:space="preserve" xmlns:serif="http://www.serif.com/" style="fill-rule:evenodd;clip-rule:evenodd;stroke-linejoin:round;stroke-miterlimit:2;"><g id="layer1"></g><g id="layer11" serif:id="layer1"><g><g><path d="M1224.02,1110.38l0.557,35.77l-1.829,0.442c-1.034,0.266 -2.625,0.62 -3.499,0.708c-3.022,0.532 -3.579,3.808 -3.579,21.25c-0,15.671 -0.08,16.556 -1.59,17.088c-3.579,1.239 -4.772,4.604 -4.772,13.015c-0,5.489 -0.318,7.968 -0.954,8.145c-0.557,0.266 -1.988,0.62 -3.261,0.886c-1.272,0.354 -2.862,1.77 -3.976,3.63l-1.749,3.099l-27.993,-0.001l-27.992,0.001l-5.647,9.031c-5.646,9.208 -11.69,18.77 -29.98,48.076l-9.941,15.937l-17.575,0.443l-17.654,0.443l-0.557,4.869c-0.238,2.656 -0.477,17.53 -0.557,32.936l-0.079,28.067l1.829,0.266c1.75,0.266 1.75,0.266 2.386,23.728c0.318,12.926 0.795,24.437 1.033,25.588l0.398,2.124l26.402,-0.62c31.015,-0.619 121.911,-1.859 139.724,-1.859l12.327,0l3.34,7.526c1.829,4.161 3.022,7.792 2.783,8.146c-0.318,0.354 -4.135,0.796 -8.509,0.885l-7.953,0.266l-0.238,3.098c-0.238,2.745 0.159,3.542 3.976,7.26c2.306,2.214 3.976,4.427 3.658,4.782c-0.318,0.354 -21.789,0.974 -47.714,1.328c-25.925,0.354 -48.828,0.973 -50.896,1.239l-3.737,0.62l-0.239,7.614l-0.239,7.703l-51.69,0.443c-39.444,0.354 -52.089,0.708 -53.441,1.594c-2.863,1.77 -4.215,4.692 -4.215,9.03c0,2.214 -0.397,4.516 -0.954,5.136c-1.113,1.239 -7.634,1.416 -10.497,0.177c-1.75,-0.708 -14.474,-13.812 -46.76,-48.519l-11.849,-12.573l-11.85,0c-10.099,0 -11.928,-0.177 -11.928,-1.328c-0,-1.151 -6.601,-1.328 -54.236,-1.505c-29.901,-0.089 -55.428,-0.177 -56.86,-0.177c-2.067,0.088 -4.93,2.479 -17.018,14.255l-14.394,14.166l-18.847,0.442l-18.847,0.443l-58.053,27.27c-31.889,14.963 -59.246,27.978 -60.836,28.863c-1.591,0.886 -5.487,4.87 -8.748,8.766c-3.26,3.984 -6.6,7.703 -7.396,8.145c-0.874,0.532 -3.896,1.24 -6.759,1.683c-2.863,0.354 -9.384,1.327 -14.394,2.124c-10.418,1.683 -14.871,2.391 -25.05,3.896c-3.897,0.62 -8.907,1.417 -11.134,1.859c-8.27,1.594 -14.473,2.656 -19.881,3.187c-3.101,0.355 -6.839,1.241 -8.35,2.037c-2.624,1.328 -2.783,1.682 -2.704,5.401c0.08,3.542 1.432,17 3.5,34.53c0.397,3.188 1.272,11.156 1.988,17.708c1.67,14.874 2.544,22.223 3.181,27.978c0.556,4.161 0.318,4.958 -2.943,11.687l-3.499,7.171l1.034,7.349c0.557,4.073 1.511,11.51 2.227,16.645c0.715,5.136 1.59,11.688 1.988,14.61c0.397,2.921 1.272,9.296 1.988,14.166c0.716,4.869 1.59,11.244 1.988,14.165c0.398,2.922 1.272,9.297 1.988,14.167c2.068,14.786 2.704,19.124 3.897,28.332c0.636,4.869 1.59,11.422 2.067,14.609c0.478,3.187 1.352,9.562 1.988,14.166c0.637,4.604 1.512,10.979 1.989,14.167c0.954,6.463 3.101,22.134 3.976,28.685c0.477,3.631 1.034,4.782 3.578,7.083c1.75,1.506 6.442,6.021 10.577,9.917l7.475,7.172l6.442,0.619c6.044,0.532 31.412,-0.708 33.877,-1.77c0.636,-0.178 3.261,-0.797 5.965,-1.24c2.703,-0.442 6.361,-1.239 8.191,-1.682c4.214,-0.886 4.532,-0.531 5.725,7.083c1.591,10.27 1.273,12.218 -2.544,17.619c-1.909,2.656 -5.726,8.234 -8.589,12.395c-6.123,8.854 -7.078,10.182 -31.253,45.155c-10.259,14.786 -18.45,27.27 -18.291,27.624c0.239,0.354 3.977,0.708 8.271,0.708l7.873,-0l14.155,-19.566c7.793,-10.803 14.871,-20.63 15.746,-21.958c0.875,-1.328 4.453,-6.287 7.952,-11.067c3.499,-4.782 7.237,-10.005 8.271,-11.688c1.034,-1.682 2.147,-3.01 2.465,-3.01c0.636,-0 1.67,5.578 3.579,19.036c2.624,19.213 2.942,20.629 5.01,23.02c1.113,1.328 3.181,3.01 4.692,3.63l2.703,1.328l-1.749,3.099c-1.511,2.833 -1.67,3.984 -1.272,11.244c0.238,4.516 1.033,13.901 1.749,20.984c0.716,7.083 1.591,16.026 1.988,20.01c0.318,3.984 1.114,8.056 1.75,9.119c0.874,1.682 0.874,2.125 -0.239,3.01c-0.716,0.62 -1.67,1.948 -2.227,3.01c-0.795,1.683 -0.636,2.303 0.796,3.897c1.511,1.681 2.147,1.77 9.861,1.239c5.646,-0.443 8.35,-0.354 8.668,0.354c0.397,0.619 -0.636,0.974 -3.261,0.974c-7.873,-0 -18.608,6.375 -23.698,14.166c-3.578,5.489 -5.964,11.244 -5.964,14.786l-0,2.922l9.384,-0c5.089,-0.089 10.735,-0.443 12.485,-0.886c1.75,-0.442 5.408,-1.328 8.191,-2.036c5.805,-1.416 6.282,-1.062 6.68,4.692c0.239,3.985 0.239,3.985 3.181,3.807c1.829,-0.088 3.022,0.267 3.26,0.975c0.637,1.859 -0.715,7.26 -2.544,10.093c-1.829,2.922 -7.476,6.375 -10.338,6.375c-6.124,0 -11.85,-4.693 -13.758,-11.068l-1.034,-3.541l-7.793,-0.266l-7.714,-0.265l-0,3.452c-0,4.87 4.215,13.635 8.907,18.771c2.147,2.302 6.282,5.578 9.224,7.171c5.01,2.745 5.806,2.922 13.678,2.922c7.396,0 8.828,-0.265 12.645,-2.39c2.306,-1.328 4.612,-2.125 4.93,-1.859c0.398,0.265 4.851,5.843 9.861,12.395c5.09,6.552 9.464,11.864 9.861,11.864c0.319,-0 2.307,-1.594 4.295,-3.542c1.988,-1.948 3.896,-3.541 4.374,-3.541c0.874,-0 3.34,3.896 3.34,5.312c-0,0.531 -1.273,3.01 -2.784,5.578c-1.511,2.479 -2.783,4.958 -2.783,5.49c-0,0.885 31.332,25.41 33.082,25.941c0.477,0.178 2.624,-2.567 4.692,-6.02c2.147,-3.365 4.056,-6.198 4.374,-6.198c0.318,-0 1.352,0.974 2.306,2.125l1.829,2.213l-2.465,5.667c-1.352,3.099 -2.465,5.932 -2.465,6.286c-0,0.708 34.99,20.01 36.342,20.01c0.557,-0 2.306,-2.834 3.817,-6.198c1.511,-3.453 3.102,-6.198 3.499,-6.198c0.318,0 1.273,0.797 2.068,1.771c1.352,1.682 1.352,1.948 -0.716,7.083c-1.113,3.01 -2.067,5.844 -2.067,6.286c-0,0.62 11.213,6.995 12.326,6.995c0.159,-0 5.567,2.567 11.929,5.755c6.441,3.187 12.167,5.755 12.803,5.755c0.636,-0 2.147,-2.656 3.499,-5.932l2.465,-5.932l1.988,2.302l2.068,2.213l-2.386,5.755c-1.272,3.187 -2.147,6.198 -1.829,6.64c0.239,0.443 4.056,2.48 8.43,4.605c4.374,2.125 9.94,4.869 12.326,6.109c2.386,1.239 7.157,3.541 10.577,5.135l6.203,3.01l2.067,-5.4c2.068,-5.224 3.022,-5.932 4.533,-3.277c0.557,0.974 0.239,2.745 -1.034,6.11c-1.033,2.655 -1.988,5.312 -2.226,5.843c-0.398,1.152 3.26,3.276 20.04,11.333c4.851,2.302 10.577,5.135 12.883,6.286c2.226,1.152 4.294,2.125 4.533,2.125c0.477,0 5.248,-11.244 5.248,-12.484c0,-1.328 1.273,-0.885 2.624,0.797c1.75,2.125 1.75,2.568 -0.636,8.5c-1.113,2.745 -1.988,5.224 -1.988,5.401c0,0.531 5.726,3.453 18.688,9.739c4.852,2.302 11.054,5.401 13.838,6.817c5.964,3.01 5.169,3.631 9.384,-7.172c1.431,-3.629 2.783,-6.728 2.942,-6.994c0.159,-0.177 1.511,0.886 2.863,2.391l2.545,2.656l-1.829,5.844c-1.034,3.541 -1.432,6.197 -1.034,6.64c1.272,1.417 37.933,15.14 38.569,14.432c0.239,-0.443 1.432,-3.896 2.624,-7.792c1.193,-3.895 2.307,-7.614 2.466,-8.234c0.318,-0.885 1.033,-0.62 2.783,0.974c1.272,1.24 3.101,2.479 3.976,2.833c1.432,0.532 1.591,1.328 1.591,7.083c-0,6.109 0.159,6.641 1.829,7.084c0.954,0.265 10.338,0.354 20.835,0.265l19.086,-0.265l0.238,-7.349c0.16,-3.985 0.557,-7.26 0.955,-7.26c0.397,-0 1.67,0.442 2.783,1.062c1.909,0.974 1.988,1.328 1.988,7.968l0,6.907l41.353,-0l-0,-7.438c-0,-4.161 0.318,-7.791 0.795,-8.057c0.398,-0.265 1.829,0.089 3.181,0.886c2.306,1.328 2.386,1.505 2.386,7.968l-0,6.641l42.068,-0l0.239,-8.323l0.238,-8.323l2.784,1.505l2.783,1.417l0.238,6.906l0.239,6.818l41.273,-0l0,-7.969c0,-8.588 0.239,-9.031 4.374,-6.906c1.829,0.974 1.988,1.416 1.988,7.526l0,6.463l20.517,-0.177l20.438,-0.265l0.239,-7.349c0.159,-6.375 0.397,-7.26 1.67,-7.26c1.988,-0 2.465,1.682 2.465,8.499l0,5.667l20.677,-0.001l20.676,0.001l-0,-7.172c-0,-6.906 0.079,-7.083 1.829,-6.817c1.59,0.265 1.749,0.797 1.988,7.171l0.239,6.818l20.835,-0.178l20.835,-0.265l0.239,-7.349c0.159,-6.286 0.397,-7.348 1.431,-6.906c0.716,0.266 1.75,0.532 2.386,0.532c0.875,-0 1.113,1.328 1.113,5.666c0,9.208 -1.908,8.5 21.551,8.5l20.597,-0.001l0,-7.968c0,-4.427 0.318,-7.968 0.636,-7.968c0.319,0 1.591,0.531 2.784,1.062c1.908,1.062 2.067,1.594 2.306,7.792l0.239,6.64l20.199,0.265c15.666,0.178 20.358,-0.088 20.914,-0.885c0.319,-0.619 0.637,-3.984 0.637,-7.437c-0,-6.729 0.397,-7.969 2.147,-6.463c0.716,0.708 1.034,3.187 1.034,7.526l-0,6.551l41.352,0l0,-7.879c0,-7.349 0.716,-10.271 1.989,-8.058c0.238,0.443 1.113,0.886 1.987,0.886c1.909,0 2.386,1.682 2.386,8.5l0,5.666l41.353,-0l-0,-8.057c-0,-4.427 0.238,-7.88 0.636,-7.703c0.318,0.266 1.67,0.885 3.102,1.506c2.544,1.15 2.544,1.15 2.783,7.879l0.239,6.818l20.914,0.265l20.836,0.177l-0,-7.348c-0,-4.073 0.238,-7.614 0.477,-7.969c0.318,-0.266 1.511,0 2.783,0.709c2.068,1.239 2.227,1.681 2.465,7.791l0.239,6.375l20.915,0.265l20.835,0.177l0,-6.906c0,-3.807 0.239,-7.26 0.477,-7.525c0.319,-0.266 1.193,-0.177 1.989,0.354c1.272,0.708 1.511,1.948 1.511,7.526l-0,6.551l20.517,-0.177l20.437,-0.265l0.239,-6.641c0.239,-7.171 0.954,-8.942 2.863,-7.171c0.795,0.796 1.272,3.187 1.431,7.437l0.239,6.375l20.517,0.265l20.438,0.177l0,-8.411c0,-4.604 0.318,-8.411 0.716,-8.411c0.397,-0 1.67,0.354 2.783,0.885c1.988,0.798 2.068,1.152 2.068,7.526l-0,6.641l42.148,-0l-0,-7.526c-0,-8.057 0.397,-8.765 3.817,-6.11c1.511,1.152 1.749,2.126 1.749,7.527l0,6.109l41.353,-0l0,-7.969c0,-8.765 0.238,-9.119 4.612,-6.198c2.466,1.683 2.545,1.86 2.545,7.969l0,6.198l41.353,-0l-0,-7.438c-0,-4.161 0.318,-7.791 0.795,-8.057c0.398,-0.265 1.829,0.089 3.181,0.886c2.306,1.328 2.386,1.505 2.386,7.968l-0,6.641l41.352,-0l0,-7.881c0,-4.426 0.239,-8.145 0.637,-8.322c0.318,-0.266 1.828,0.177 3.339,1.062c2.784,1.417 2.784,1.505 3.022,7.88l0.239,6.375l41.273,-0l0,-7.349c0,-4.072 0.239,-7.614 0.477,-7.968c0.318,-0.266 1.511,0 2.784,0.708c2.067,1.24 2.226,1.682 2.465,7.792l0.238,6.374l41.353,0l0.239,-6.906c0.238,-6.551 0.318,-6.906 1.988,-6.64c1.59,0.266 1.749,0.797 1.988,7.083l0.239,6.906l41.193,-0l0.238,-6.906c0.24,-6.109 0.398,-6.817 1.83,-6.817c1.431,-0 1.67,0.708 1.988,6.64l0.398,6.64l20.516,0.266l20.438,0.177l0,-7.526c0,-6.64 0.159,-7.525 1.432,-7.525c3.101,-0 4.055,1.947 4.294,8.411l0.239,6.197l41.353,0l0.238,-7.348c0.159,-6.287 0.398,-7.26 1.59,-7.26c3.102,-0 4.056,1.947 4.295,8.411l0.238,6.197l41.353,0l0.238,-7.791c0.239,-7.614 0.239,-7.791 1.989,-7.171c3.18,1.062 3.658,2.124 3.896,8.588l0.239,6.374l40.557,0l0.239,-7.791l0.239,-7.703l2.147,0.532c1.192,0.354 2.385,0.796 2.703,1.15c0.319,0.266 0.637,3.542 0.796,7.172l0.238,6.64l19.086,0.266c10.497,0.089 19.881,0 20.915,-0.266c1.67,-0.442 1.749,-0.973 1.749,-8.056c0,-7.438 0,-7.526 1.83,-6.906c3.18,1.062 3.658,2.124 3.896,8.588l0.239,6.374l40.557,0l0.239,-7.88c0.238,-7.525 0.238,-7.791 1.988,-7.26c0.954,0.266 2.226,0.532 2.783,0.532c0.636,-0 0.955,2.036 0.955,7.083l-0,7.083l21.074,-0l21.073,-0l0,-8.057c0,-7.349 0.159,-7.969 1.432,-7.438c0.716,0.355 1.988,0.797 2.704,1.063c1.113,0.354 1.431,1.771 1.59,7.26l0.239,6.729l40.557,0l0.239,-8.234c0.238,-9.562 1.272,-10.448 3.976,-3.453c0.954,2.479 2.068,5.135 2.465,5.755c0.477,0.885 3.101,-0.177 10.895,-4.338c17.018,-9.031 23.46,-12.307 24.016,-12.307c0.318,-0 1.193,-0.62 1.909,-1.24c1.352,-1.062 1.272,-1.593 -1.352,-7.525c-1.511,-3.453 -2.783,-6.552 -2.783,-6.729c-0,-0.266 1.034,-0.443 2.306,-0.443c1.988,-0 2.465,0.62 4.374,5.312c1.193,2.833 2.465,5.49 2.783,5.667c0.398,0.265 3.102,-0.797 6.124,-2.48c3.021,-1.594 7.157,-3.806 9.145,-4.78c12.962,-6.552 22.187,-11.688 22.187,-12.307c-0.08,-0.355 -1.59,-4.338 -3.499,-8.677c-1.909,-4.427 -3.34,-8.146 -3.181,-8.411c0.08,-0.266 1.749,-0.354 3.738,-0.177c3.578,0.354 3.578,0.354 5.805,6.021c1.272,3.098 2.703,5.666 3.26,5.666c0.477,-0 5.646,-2.568 11.531,-5.578c5.806,-3.099 13.917,-7.349 17.973,-9.474c3.976,-2.125 7.316,-4.161 7.316,-4.516c-0,-0.353 -1.272,-3.718 -2.783,-7.348c-1.511,-3.718 -2.863,-7.172 -3.022,-7.703c-0.08,-0.62 1.193,-1.063 3.022,-1.151c3.101,-0.089 3.26,-0 5.725,5.224c1.432,2.922 2.704,5.667 2.784,6.021c0.239,0.619 11.849,-5.224 31.809,-16.026l6.045,-3.276l-3.102,-7.348c-1.67,-4.073 -3.101,-7.615 -3.101,-7.792c-0,-0.177 1.352,-0.354 3.021,-0.354c2.943,-0 3.182,0.177 4.931,4.87c3.022,8.057 -0.477,8.942 31.65,-8.057c4.852,-2.568 8.907,-4.87 8.907,-5.136c0,-0.265 -1.272,-3.541 -2.783,-7.348c-2.227,-5.224 -2.624,-6.906 -1.829,-7.526c2.068,-1.417 3.499,-0.177 5.964,5.489c1.511,3.365 3.022,5.667 3.579,5.49c1.749,-0.443 35.15,-17.974 36.024,-18.859c0.477,-0.531 -0.079,-2.656 -1.51,-5.755c-1.193,-2.745 -1.909,-5.312 -1.512,-5.667c0.319,-0.354 1.83,-0.885 3.181,-1.15c2.466,-0.532 2.784,-0.266 5.965,4.781c1.988,3.099 3.817,5.046 4.374,4.869c2.147,-0.973 32.843,-25.587 32.843,-26.384c0,-0.531 -1.431,-3.099 -3.181,-5.932c-1.749,-2.745 -3.181,-5.313 -3.181,-5.578c0,-0.354 1.272,-1.062 2.863,-1.594c2.784,-1.063 2.943,-0.974 6.6,3.01c2.068,2.214 4.136,4.073 4.693,4.073c0.954,0 28.151,-30.369 28.708,-32.051c0.159,-0.442 -1.113,-2.39 -2.783,-4.338l-3.022,-3.453l123.581,-0l-0,-350.612l-68.551,-0.089c-37.774,-0.088 -69.345,-0.354 -70.299,-0.619c-1.431,-0.532 -21.71,-25.234 -32.843,-40.02c-10.816,-14.343 -22.983,-25.765 -44.932,-42.056c-11.213,-8.322 -12.008,-9.119 -12.485,-12.129c-0.557,-4.25 -1.67,-5.578 -5.965,-7.438c-2.624,-1.15 -4.771,-1.328 -8.509,-0.885c-4.93,0.531 -5.407,0.354 -19.722,-5.932c-18.211,-8.146 -22.743,-10.536 -29.742,-15.672c-12.644,-9.384 -19.244,-14.077 -22.585,-15.936c-13.28,-7.438 -28.628,-10.359 -42.147,-7.88c-13.917,2.479 -24.732,7.082 -29.266,12.395c-3.021,3.542 -4.373,6.995 -7.396,18.505c-3.896,14.874 -4.85,21.161 -4.93,32.316c0,5.844 -0.159,10.891 -0.397,11.245c-0.159,0.443 -1.432,0.088 -2.704,-0.709l-2.465,-1.328l0.556,-7.349l0.557,-7.259l-5.408,-5.313c-3.022,-2.833 -6.839,-6.64 -8.509,-8.322c-1.67,-1.683 -4.533,-4.074 -6.362,-5.225c-1.829,-1.15 -5.726,-3.629 -8.668,-5.489c-5.249,-3.364 -5.408,-3.453 -13.519,-3.453l-8.191,0l-1.829,3.542c-0.954,1.948 -2.227,3.541 -2.783,3.541c-0.557,0 -2.386,-0.974 -4.136,-2.036c-1.749,-1.151 -7.793,-5.047 -13.519,-8.765c-5.646,-3.631 -12.008,-7.703 -14.076,-8.942c-3.34,-2.037 -8.668,-5.401 -18.926,-11.865c-1.511,-0.974 -8.351,-5.312 -15.11,-9.65c-6.839,-4.339 -13.36,-8.411 -14.553,-9.12c-3.579,-2.125 -5.328,-4.427 -5.328,-7.172c-0,-2.656 -0,-2.656 -4.772,-2.656c-3.896,0 -5.646,-0.531 -9.463,-2.833c-4.851,-2.922 -5.646,-4.161 -5.646,-9.385l0,-2.833l-6.839,-0c-5.885,-0 -7.237,-0.266 -10.339,-2.302c-2.862,-1.86 -3.498,-2.745 -3.498,-4.87c-0,-1.682 -0.796,-3.541 -1.989,-4.87c-1.113,-1.239 -1.988,-3.187 -1.988,-4.338c0,-1.328 -0.477,-2.214 -1.113,-2.214c-0.637,0 -1.272,-0.885 -1.431,-2.036c-0.16,-1.594 -0.716,-1.947 -3.023,-1.947c-2.305,-0 -2.862,0.353 -3.021,1.947c-0.159,1.24 -0.796,2.036 -1.67,2.036c-0.716,0 -1.83,0.532 -2.306,1.063c-0.716,0.797 -1.193,0.886 -1.591,0.177c-0.318,-0.531 -1.75,-1.24 -3.181,-1.505c-1.511,-0.354 -3.658,-1.417 -4.931,-2.391c-1.192,-0.974 -3.34,-1.77 -4.612,-1.77c-2.147,-0 -2.465,-0.354 -2.704,-2.922l-0.238,-2.833l-100.599,-0.266l-100.677,-0.177l-2.784,4.604c-2.465,4.25 -3.658,5.224 -11.69,9.739c-11.849,6.641 -16.62,7.615 -30.855,6.198c-12.963,-1.328 -27.436,-4.516 -38.49,-8.499c-11.054,-4.074 -17.973,-6.11 -31.333,-9.386l-11.133,-2.656l-75.23,-0l-3.101,3.099c-2.943,3.01 -3.34,3.099 -9.146,3.099c-4.691,-0 -6.043,-0.266 -6.043,-1.24c-0,-1.151 4.771,-6.109 31.253,-32.316c5.566,-5.579 10.099,-10.271 10.099,-10.448c-0,-2.036 -1.988,-8.234 -2.624,-8.234c-0.557,-0 -0.557,-0.354 0.079,-1.063c0.557,-0.619 0.955,-2.833 0.955,-5.134c0.079,-5.047 1.272,-7.969 4.851,-11.334l2.783,-2.745l6.123,0.975l6.124,0.885l8.111,-6.552c4.453,-3.541 -14.848,-85.576 -13.973,-86.196c1.272,-0.797 -40.422,-73.792 -40.422,-73.792l-19.165,-20.63c-10.577,-11.333 -22.823,-24.348 -27.197,-29.041c-21.472,-22.843 -30.617,-33.202 -30.617,-34.707c0,-1.24 -0.636,-1.594 -2.942,-1.594c-3.579,0 -4.056,-0.354 -6.84,-4.515c-2.067,-3.01 -2.147,-3.63 -2.147,-13.458c0,-9.562 -0.079,-10.359 -1.749,-11.598c-2.386,-1.86 -5.646,-1.771 -7.237,0.177c-1.034,1.239 -1.352,3.895 -1.511,12.129l-0.238,10.625l-54.872,-0l-54.872,0l-1.272,-4.427c-0.796,-2.479 -2.068,-7.26 -2.943,-10.624c-1.511,-5.756 -2.544,-9.917 -6.68,-25.676c-3.181,-12.219 -4.055,-15.052 -4.93,-15.672c-0.477,-0.354 -3.102,-0.708 -5.806,-0.708c-4.771,-0 -5.169,-0.177 -8.191,-3.542c-2.783,-3.098 -3.578,-3.541 -6.918,-3.541c-4.135,-0 -8.271,2.213 -9.782,5.224c-0.874,1.859 -1.352,1.859 -37.456,1.859c-35.945,-0 -36.661,-0 -37.058,1.771c-0.397,1.681 -1.113,1.77 -12.247,1.77l-11.849,-0l0,38.072l-5.328,4.25c-9.384,7.348 -8.986,6.463 -8.986,19.036c-0,9.296 -0.239,11.155 -1.273,11.598c-0.715,0.265 -1.431,0.531 -1.59,0.531c-0.159,-0 -0.318,-3.895 -0.318,-8.677c-0,-10.004 -0.875,-12.218 -5.328,-13.103l-2.863,-0.62l0.477,-22.046c0.477,-17.531 0.318,-22.046 -0.398,-21.78c-0.795,0.354 -1.113,5.755 -1.431,21.957l-0.398,21.604l-2.783,0.796c-5.01,1.417 -5.169,1.771 -5.487,18.328c-0.08,8.323 -0.557,14.874 -0.875,14.609c-0.398,-0.266 -0.477,-5.313 -0.318,-11.334c0.238,-5.932 0.079,-11.332 -0.239,-11.863c-0.556,-0.886 -7.316,-1.24 -26.959,-1.683c-14.393,-0.265 -48.35,-0.974 -75.468,-1.505c-27.118,-0.62 -54.872,-0.886 -61.711,-0.62l-12.406,0.443l-3.101,2.922c-1.749,1.682 -6.203,6.02 -10.02,9.739l-6.998,6.729l-0,50.113l-16.7,-0.001l-16.701,0.001l-0.477,-2.125c-0.636,-2.922 -2.624,-4.781 -5.487,-5.135l-2.386,-0.266l-0.397,-9.031c-0.318,-7.791 -0.636,-9.296 -2.147,-11.067c-1.75,-2.037 -1.829,-2.745 -1.829,-19.479c-0,-19.035 -0.159,-19.744 -5.169,-20.364l-2.386,-0.265l-0.477,-29.661c-0.239,-16.291 -0.557,-32.581 -0.636,-36.123c-0,-4.073 -0.398,-6.375 -0.955,-6.375c-0.716,0 -0.795,9.296 -0.318,35.858Zm401.041,-28.155c0.159,0.797 -0.636,1.151 -2.545,1.151c-2.067,-0 -2.862,-0.354 -2.862,-1.417c-0,-1.682 4.85,-1.417 5.407,0.266Zm150.301,40.905c0.636,0.442 0.954,1.859 0.795,3.276c-0.159,2.036 -0.636,2.567 -2.226,2.567c-1.432,0 -2.068,-0.531 -2.227,-2.036c-0.239,-1.948 1.034,-4.604 2.147,-4.604c0.239,-0 0.954,0.354 1.511,0.797Zm-3.499,28.597c0.239,1.151 0.557,2.834 0.636,3.808c0.239,1.416 0.954,1.859 4.056,2.036c3.34,0.266 3.897,-0 4.294,-1.594c0.477,-1.859 0.477,-1.859 1.352,0.177c0.636,1.506 1.829,2.126 4.215,2.48c3.658,0.442 3.181,0.088 27.277,26.118c6.362,6.818 18.926,20.364 28.072,30.015c9.066,9.651 16.461,17.973 16.461,18.328c0,0.442 -7.475,0.796 -16.62,0.796l-16.541,-0l-7.873,-9.916c-13.599,-17.088 -15.269,-18.328 -23.539,-18.416l-4.613,-0l-0.159,-17.531l-0.238,-17.442l-46.92,-0l-0.238,12.396c-0.16,8.5 -0.477,12.572 -1.193,13.015c-0.557,0.354 -11.611,0.708 -24.573,0.708c-22.665,-0 -23.619,0.088 -24.732,1.771c-1.432,2.302 -2.147,1.416 -2.147,-2.833l-0,-3.365l-16.462,-0l-1.67,-6.021c-0.875,-3.275 -2.545,-9.562 -3.738,-13.9c-1.113,-4.427 -2.544,-9.739 -3.18,-11.953c-0.557,-2.213 -1.352,-5.489 -1.591,-7.349l-0.557,-3.275l109.903,-0l0.318,1.947Zm968.208,516.002c5.885,7.438 8.43,11.245 7.793,11.688c-0.556,0.354 -2.862,0.708 -5.088,0.708c-3.579,-0 -4.216,0.265 -4.216,1.594c0,1.593 -0.397,1.593 -6.68,0.531c-10.338,-1.682 -11.61,-2.391 -8.429,-4.605c0.954,-0.619 2.704,-3.01 3.976,-5.223c2.067,-3.542 2.386,-5.047 2.386,-10.271c0,-3.364 0.318,-5.931 0.715,-5.754c0.398,0.088 4.692,5.223 9.543,11.332Zm-119.127,370.622c-0.398,1.859 -1.67,6.995 -2.863,11.422c-3.817,14.343 -4.055,16.202 -2.226,18.858c1.828,2.745 5.487,3.542 8.349,1.86c1.034,-0.62 6.044,-4.162 11.213,-7.969c7.714,-5.755 9.702,-6.817 11.134,-6.109c8.111,3.542 9.622,4.87 9.145,8.146l-0.238,2.036l-1.909,-2.479c-2.147,-2.656 -3.022,-2.833 -6.044,-1.328c-1.67,0.885 -1.988,1.594 -1.988,5.047c-0,3.807 2.863,17.972 4.692,23.374c1.113,3.187 1.113,3.275 -0.159,3.275c-0.557,0 -2.466,1.329 -4.215,3.011c-3.022,2.834 -17.734,11.156 -19.881,11.156c-0.477,-0 -1.909,-1.86 -3.102,-4.25c-2.942,-5.489 -9.304,-15.14 -11.849,-17.797c-2.067,-2.124 -2.146,-2.124 -4.851,-0.708c-1.511,0.797 -2.783,1.948 -2.783,2.568c0,2.479 2.465,15.671 4.135,21.869c1.75,6.463 1.75,6.64 0.239,7.526c-0.875,0.531 -2.465,2.036 -3.658,3.364c-1.193,1.417 -2.465,2.48 -2.863,2.48c-0.318,-0 -4.294,2.036 -8.827,4.426c-4.533,2.48 -8.51,4.427 -8.907,4.427c-0.398,0 -1.352,-1.062 -2.147,-2.479c-7.157,-12.927 -13.122,-21.426 -14.951,-21.426c-0.636,-0 -2.067,0.443 -3.181,1.062c-1.67,0.797 -1.988,1.594 -1.988,4.604c0,3.011 2.863,16.646 5.169,25.057c0.398,1.416 0.159,2.036 -1.113,2.479c-0.875,0.266 -2.545,1.77 -3.738,3.364c-1.113,1.505 -2.703,2.834 -3.419,3.011c-0.716,0.088 -4.533,1.947 -8.43,4.072c-10.418,5.667 -10.179,5.667 -11.849,1.771c-1.749,-4.073 -9.941,-16.822 -12.644,-19.567c-1.909,-2.036 -2.068,-2.036 -4.533,-0.619l-2.624,1.504l0.477,5.844c0.397,5.4 1.352,10.27 3.658,18.77c1.193,4.162 1.113,6.198 -0.159,6.198c-1.273,-0 -5.328,4.604 -5.328,6.02c-0,0.62 -0.478,1.063 -1.034,1.063c-0.557,-0 -4.692,1.948 -9.145,4.427c-4.454,2.39 -8.669,4.427 -9.225,4.427c-0.637,-0 -2.386,-2.391 -3.976,-5.313l-2.784,-5.312l3.499,-5.932c9.782,-16.291 15.746,-35.239 17.098,-54.363c0.716,-10.979 -0.239,-31.608 -1.67,-34.53c-2.068,-4.427 -2.545,-4.338 24.573,-4.338c13.837,-0 33.002,-0.266 42.466,-0.62l17.177,-0.531l8.987,-16.026c4.93,-8.854 10.179,-18.15 11.69,-20.806l2.703,-4.693l2.386,2.568c2.147,2.391 2.227,2.834 1.511,6.109Zm67.914,29.218c0.716,0.354 1.908,2.036 2.783,3.896l1.511,3.276l-2.465,2.035c-1.988,1.594 -2.704,1.772 -4.135,0.975c-1.352,-0.797 -2.306,-0.709 -5.09,0.797c-4.692,2.567 -7.316,3.63 -7.316,2.922c0,-0.886 8.827,-13.458 9.861,-13.901c1.351,-0.619 3.34,-0.619 4.851,0Zm-382.592,7.437c-0.079,1.239 -0.636,7.526 -1.272,14.078c-2.147,22.311 1.113,42.941 9.781,62.331c4.851,10.979 11.611,21.692 19.007,29.926c8.111,9.031 11.372,12.041 18.608,16.999l5.408,3.719l-0.477,6.551c-0.239,3.631 -0.636,6.73 -0.875,6.995c-1.749,1.948 -27.595,2.745 -29.583,0.886c-0.636,-0.532 -1.034,-2.834 -1.034,-5.49c0,-4.692 -2.306,-17.708 -3.817,-22.046c-0.795,-1.948 -1.431,-2.391 -3.737,-2.391c-2.545,0 -3.022,0.354 -4.056,3.099c-1.273,3.453 -3.897,16.292 -4.692,22.666c-0.477,4.073 -0.557,4.162 -3.818,4.693c-3.419,0.62 -25.129,0.708 -26.083,0.088c-0.239,-0.266 -0.716,-2.921 -0.954,-5.932c-0.557,-7.083 -2.784,-19.036 -3.977,-21.957c-1.591,-3.63 -7.157,-3.542 -7.952,0.177c-0.239,1.151 -0.954,4.249 -1.67,6.906c-0.716,2.656 -1.67,7.437 -2.068,10.624c-1.352,9.739 -1.193,9.474 -4.93,10.094c-5.249,0.974 -25.607,0.531 -26.164,-0.443c-0.239,-0.532 -0.716,-3.984 -0.954,-7.703c-0.318,-3.718 -1.193,-9.739 -1.988,-13.192l-1.432,-6.463l6.362,-7.349c10.179,-11.687 16.621,-22.4 21.949,-36.478c5.328,-14.254 7.077,-23.64 7.714,-41.082c0.397,-13.28 0.636,-14.609 2.147,-16.114c0.954,-0.796 4.851,-4.515 8.747,-8.234l6.999,-6.64l11.292,-0.354c14.633,-0.355 13.599,-0.443 13.519,2.036Zm-248.036,3.719c-0.238,2.567 -0.875,6.64 -1.352,9.119c-0.954,5.224 -0.477,23.905 0.875,33.025c2.226,14.697 8.986,32.67 17.893,47.103c8.43,13.723 24.812,29.128 38.569,36.477l6.601,3.542l-0.557,4.073c-0.318,2.302 -0.875,4.515 -1.193,4.958c-0.636,0.708 -28.549,0.885 -29.186,0.176c-0.159,-0.176 -0.635,-4.072 -1.112,-8.588c-0.716,-7.348 -1.512,-11.332 -3.579,-19.212c-0.478,-1.771 -0.954,-2.036 -3.817,-1.771c-3.181,0.266 -3.261,0.354 -4.692,5.046c-1.511,5.136 -3.181,13.636 -4.136,20.63l-0.477,4.25l-13.916,-0.001c-7.635,0.001 -13.838,-0.177 -13.838,-0.442c0,-3.099 -2.783,-20.806 -3.817,-24.437c-1.352,-4.692 -1.432,-4.78 -4.692,-5.046c-3.102,-0.265 -3.34,-0.088 -4.135,2.656c-1.75,5.844 -3.181,12.838 -4.056,20.009l-0.954,7.261l-14.076,-0.178l-13.996,-0.265l-0.557,-6.64c-0.636,-6.906 -2.465,-16.734 -3.817,-20.807c-0.716,-2.036 -1.193,-2.301 -4.056,-2.036c-3.26,0.266 -3.34,0.354 -4.612,5.135c-1.432,5.136 -2.863,12.396 -3.897,19.921c-0.556,4.339 -0.636,4.427 -3.738,4.959c-1.749,0.265 -3.737,0.796 -4.453,1.15c-0.795,0.355 -1.59,0.266 -1.908,-0.265c-0.319,-0.62 -4.215,-0.974 -10.418,-0.974c-5.408,0 -9.861,-0.178 -9.861,-0.355c-0,-2.301 -1.909,-15.582 -2.943,-20.363l-1.272,-6.109l4.851,-4.781c13.36,-13.192 25.607,-35.77 30.06,-55.514c2.227,-9.917 3.42,-20.364 3.499,-30.192l0,-9.827l8.828,-8.146l8.827,-8.145l55.667,-0l-0.557,4.604Zm-278.574,-1.505c-1.59,13.723 -1.988,24.171 -1.113,33.733c1.352,16.291 3.101,23.994 8.191,36.478c1.272,3.098 2.306,5.754 2.306,6.02c0,1.151 8.669,15.583 12.645,20.984c8.588,11.687 20.915,22.755 32.684,29.394c2.386,1.329 4.453,2.568 4.612,2.657c0.16,0.088 -0.159,2.833 -0.715,6.109c-0.796,5.312 -1.034,5.843 -2.783,5.843c-1.114,0 -3.182,0.531 -4.613,1.24c-1.511,0.708 -3.022,0.885 -3.42,0.442c-0.318,-0.354 -5.169,-0.885 -10.576,-0.973l-9.941,-0.266l-1.352,-10.359c-0.795,-5.667 -2.067,-12.395 -2.783,-15.052c-1.352,-4.426 -1.591,-4.692 -4.374,-4.957c-2.704,-0.266 -3.022,-0 -4.056,2.656c-1.431,3.807 -3.34,12.66 -4.532,20.718l-0.875,6.374l-3.34,0.531c-3.817,0.709 -25.209,0.62 -26.164,0c-0.318,-0.265 -0.636,-2.036 -0.636,-3.895c0,-3.365 -2.386,-17.885 -3.817,-23.462c-0.636,-2.391 -0.954,-2.657 -4.135,-2.657c-3.341,0 -3.42,0.089 -4.533,3.984c-1.829,6.818 -2.784,11.687 -3.738,18.593l-0.875,6.641l-3.181,0.796c-1.749,0.355 -8.429,0.886 -14.871,1.151l-11.61,0.355l-0.477,-3.365c-0.239,-1.859 -0.637,-5.578 -0.875,-8.234c-0.318,-2.656 -1.272,-7.968 -2.147,-11.776l-1.591,-6.817l-3.419,-0l-3.34,0l-1.67,5.932c-0.955,3.364 -2.227,9.828 -2.943,14.432c-0.715,4.604 -1.511,8.588 -1.749,8.854c-0.159,0.265 -6.283,0.619 -13.519,0.796c-14.712,0.355 -14.553,0.355 -14.553,-5.843c-0,-3.985 -0.955,-9.916 -2.943,-18.682l-1.272,-5.489l-3.42,-0l-3.419,0l-1.989,7.261c-1.113,4.072 -2.385,10.535 -2.862,14.343c-0.398,3.895 -1.034,7.259 -1.273,7.525c-0.238,0.266 -6.6,0.708 -14.155,0.797l-13.758,0.354l-0.556,-7.26c-0.557,-7.171 -1.352,-12.041 -3.34,-19.036c-0.875,-3.275 -1.193,-3.541 -4.136,-3.807c-2.783,-0.266 -3.181,0 -4.055,2.214c-1.511,4.161 -3.977,16.379 -4.533,22.135l-0.557,5.577l-2.704,-0c-1.511,-0 -3.499,0.443 -4.453,0.974c-1.272,0.797 -1.75,0.797 -1.988,0c-0.159,-0.62 -3.579,-0.974 -10.498,-0.974c-11.292,-0 -11.133,0.177 -11.133,-6.906c0,-2.656 0.318,-3.099 3.817,-4.693c6.442,-3.01 15.985,-8.676 20.836,-12.395c16.939,-12.838 31.332,-33.202 38.41,-54.362c1.909,-5.756 2.863,-9.474 5.249,-21.161c0.556,-2.391 1.113,-10.005 1.431,-16.911l0.477,-12.484l2.465,-1.594c1.353,-0.885 7.555,-4.515 13.758,-8.145l11.293,-6.552l54.712,0.266c54.236,0.177 54.713,0.177 54.474,1.948Zm-343.385,4.161c-1.034,7.083 -0.796,33.999 0.318,40.551c3.896,22.4 13.837,43.472 28.39,59.94c6.362,7.349 6.68,8.234 2.386,8.234c-1.034,0 -1.989,0.62 -2.227,1.505c-2.068,7.526 -3.658,14.698 -4.056,18.416c-1.113,9.385 -0.795,8.942 -6.68,10.093c-2.942,0.621 -9.066,0.975 -13.678,0.798l-8.35,-0.266l-0.636,-4.87c-1.273,-10.359 -3.181,-20.895 -4.295,-23.285c-1.431,-3.099 -5.248,-3.365 -6.918,-0.443c-1.75,3.187 -4.851,17.353 -5.408,25.056c-0.239,2.302 -0.636,2.745 -3.419,3.365c-3.261,0.797 -25.766,0.797 -26.8,-0c-0.398,-0.177 -0.636,-1.86 -0.636,-3.631c-0,-3.895 -1.909,-15.848 -3.341,-21.426c-1.033,-3.807 -1.272,-3.983 -4.373,-4.249c-3.022,-0.266 -3.261,-0.089 -4.215,2.655c-1.67,5.225 -3.022,11.688 -3.976,19.036c-0.796,6.109 -1.273,7.438 -2.704,7.969c-1.432,0.531 -27.595,0.531 -28.072,-0.088c-0.08,-0.089 -0.557,-3.985 -1.034,-8.589c-0.795,-7.437 -0.716,-8.411 0.477,-9.208c21.074,-14.166 35.945,-31.696 44.772,-52.769c3.34,-7.879 7.237,-20.452 7.237,-23.197c0,-0.886 0.398,-2.39 0.875,-3.364c0.477,-1.063 1.113,-7.437 1.352,-14.344l0.556,-12.484l6.839,-5.489c3.738,-3.01 9.464,-7.525 12.724,-10.005l5.885,-4.516l19.722,0l-0.715,4.605Zm-250.502,0.443c-0.239,2.39 -0.795,6.197 -1.193,8.5c-1.908,11.155 0.398,31.962 5.408,48.43c6.282,20.718 21.074,42.941 36.66,55.159c5.726,4.516 5.885,4.693 5.329,7.703c-0.239,1.682 -1.114,6.906 -1.83,11.51l-1.351,8.411l-2.784,0.266c-1.511,0.088 -3.34,0.443 -3.976,0.797c-1.909,0.796 -20.835,0.177 -22.426,-0.709c-1.113,-0.619 -1.431,-1.948 -1.431,-5.312c-0,-4.604 -1.829,-16.026 -3.42,-20.984c-0.875,-2.922 -2.942,-4.16 -5.805,-3.541c-2.306,0.443 -5.328,11.244 -7.157,25.676c-0.477,4.073 -0.637,4.25 -3.022,4.25c-1.352,0 -3.261,0.62 -4.294,1.328c-1.273,1.063 -2.148,1.151 -3.261,0.443c-0.875,-0.443 -5.885,-0.886 -11.134,-0.886l-9.542,0l-0.398,-4.25c-1.113,-9.916 -2.306,-17.619 -3.42,-21.603c-1.272,-4.073 -1.351,-4.25 -4.373,-4.25c-2.784,-0 -3.181,0.354 -4.295,3.099c-1.511,3.984 -4.294,17.531 -4.294,20.806c0,3.542 -0.716,5.313 -2.306,5.313c-0.716,0.089 -2.625,0.62 -4.295,1.24c-1.59,0.707 -3.181,0.885 -3.419,0.442c-0.239,-0.442 -4.612,-0.797 -9.702,-0.797c-5.089,0 -9.702,-0.354 -10.259,-0.708c-0.556,-0.354 -1.352,-4.25 -1.829,-8.588c-0.875,-8.234 -2.783,-17.354 -4.056,-20.099c-0.795,-1.593 -4.294,-2.124 -5.964,-0.885c-1.431,1.062 -3.499,8.588 -5.01,18.77c-1.67,10.802 -1.67,10.625 -3.658,10.625c-1.034,0 -2.863,0.443 -3.976,1.062c-1.591,0.797 -2.227,0.797 -2.704,0c-0.318,-0.619 -4.135,-1.062 -10.815,-1.239l-10.338,-0.266l-0.239,-4.958l-0.238,-4.869l5.805,-2.48c30.537,-13.103 53.838,-40.55 62.824,-74.018c3.34,-12.572 3.896,-15.937 4.374,-27.446c0.238,-6.11 0.795,-11.599 1.272,-12.219c0.398,-0.62 2.227,-2.213 4.056,-3.541c1.829,-1.417 6.76,-5.136 11.054,-8.412l7.793,-5.932l34.116,0l-0.477,4.162Zm-263.862,1.328c-2.147,21.515 -0.795,38.78 4.454,54.716c2.465,7.792 2.544,7.969 1.193,7.969c-0.716,-0 -1.511,-0.443 -1.75,-0.886c-1.67,-3.01 -5.646,1.24 -13.678,14.432c-4.533,7.437 -5.487,8.677 -6.919,8.146c-0.954,-0.354 -2.465,-0.797 -3.419,-1.063c-0.955,-0.265 -1.829,-1.239 -1.988,-2.301c-0.16,-1.417 -2.148,-2.834 -8.748,-5.933c-4.692,-2.302 -8.827,-4.338 -9.066,-4.693c-0.318,-0.354 0,-2.301 0.716,-4.338c1.829,-5.578 2.863,-10.005 4.135,-17.973c1.272,-7.792 1.034,-8.677 -3.42,-9.916c-2.306,-0.62 -5.248,2.922 -12.564,15.051c-4.056,6.64 -5.647,8.5 -6.601,8.057c-0.716,-0.354 -2.465,-0.797 -3.817,-1.062c-1.829,-0.266 -2.624,-0.886 -2.624,-1.859c-0,-1.506 -1.829,-2.657 -13.678,-8.412c-2.545,-1.239 -4.613,-2.745 -4.613,-3.276c0,-0.531 0.875,-4.25 1.988,-8.234c1.591,-5.932 3.579,-16.468 3.579,-19.39c-0,-0.354 1.193,-1.239 2.624,-1.858c1.352,-0.709 4.215,-2.126 6.283,-3.1c2.067,-1.062 4.055,-1.859 4.294,-1.859c0.238,-0 1.59,-0.531 2.942,-1.24c2.863,-1.416 19.325,-8.854 28.39,-12.838c5.726,-2.567 6.442,-2.656 19.325,-2.656l13.439,-0.088l-0.477,4.604Zm-94.793,31.785c-2.067,3.63 -3.817,6.64 -3.817,6.729c-0.079,0.088 -1.67,-0.354 -3.658,-0.974c-6.362,-1.86 -8.986,-4.338 -5.726,-5.489c0.716,-0.266 2.068,-0.886 2.943,-1.328c4.214,-2.037 13.519,-5.932 13.757,-5.667c0.159,0.089 -1.431,3.187 -3.499,6.729Zm105.45,39.311c4.294,8.765 10.258,18.239 15.189,24.171c2.624,3.011 4.692,5.844 4.692,6.198c-0,0.354 -0.716,1.593 -1.511,2.745c-1.352,1.947 -1.591,2.036 -4.533,0.973c-1.67,-0.619 -5.567,-2.39 -8.668,-3.984c-3.022,-1.682 -7.635,-3.984 -10.1,-5.224c-2.545,-1.239 -4.612,-2.568 -4.612,-3.01c-0,-0.443 0.556,-2.568 1.272,-4.692c1.75,-5.667 4.294,-18.151 4.294,-21.339c0,-3.453 0.557,-2.832 3.977,4.162Zm1546.11,37.54c-1.193,0.62 -2.704,1.682 -3.34,2.213c-0.636,0.621 -3.499,2.214 -6.362,3.543c-2.863,1.327 -6.282,3.098 -7.714,3.895c-1.431,0.797 -2.783,1.151 -3.101,0.797c-0.318,-0.354 -0.159,-0.62 0.318,-0.62c1.193,-0 9.304,-6.109 15.666,-11.776l4.772,-4.249l0.954,2.479c0.795,2.302 0.716,2.568 -1.193,3.718Zm-987.135,11.953c2.863,1.594 7.396,3.807 10.02,4.958c6.044,2.568 6.68,3.276 6.203,7.26c-0.398,2.922 -0.637,3.276 -3.261,3.719c-5.248,0.797 -5.964,0.885 -16.541,0.708l-10.417,-0.177l-1.352,-10.713c-0.716,-5.844 -1.67,-11.598 -2.068,-12.838c-0.477,-1.24 -0.795,-3.011 -0.795,-3.985c-0,-1.416 1.034,-0.885 6.521,3.188c3.499,2.745 8.827,6.286 11.69,7.88Zm-523.19,-6.197c-0,0.973 -1.512,1.327 -1.988,0.53c-0.239,-0.442 0.079,-0.884 0.715,-0.884c0.716,-0 1.273,0.177 1.273,0.354Zm1248.21,3.364c-0.238,1.151 -0.875,4.781 -1.272,8.145c-0.478,3.453 -1.034,6.375 -1.273,6.641c-1.272,1.504 -8.509,2.302 -18.37,2.036c-11.213,-0.265 -11.372,-0.355 -11.372,-2.302c0,-1.771 0.716,-2.302 4.613,-3.541c7.236,-2.48 16.064,-6.552 21.233,-9.828c5.725,-3.63 7.156,-3.896 6.441,-1.151Zm-280.641,0.885c-0.239,1.151 -0.875,5.135 -1.432,8.854c-0.954,6.818 -0.954,6.906 -3.26,6.906c-1.273,0 -3.34,0.62 -4.613,1.328c-1.431,0.797 -2.465,0.974 -2.783,0.443c-0.318,-0.532 -4.772,-0.886 -10.815,-0.886l-10.259,0l0,-2.213c0,-1.682 0.557,-2.302 2.227,-2.745c7.793,-2.036 21.153,-7.703 26.799,-11.421c4.056,-2.657 4.613,-2.657 4.136,-0.266Zm-680.49,8.499c5.964,2.303 12.167,4.074 17.098,4.871c1.193,0.177 1.59,0.884 1.59,2.833c0,2.39 -0.318,2.656 -3.181,3.276c-5.805,1.151 -24.255,0.797 -24.572,-0.443c-0.239,-0.531 -0.557,-3.985 -0.796,-7.615c-0.556,-7.614 -1.431,-7.348 9.861,-2.922Zm64.256,9.563c-1.273,1.328 -3.658,1.505 -17.098,1.328l-10.576,-0.088l-0,-5.048l7.634,-0.531c4.214,-0.353 8.827,-0.973 10.179,-1.416c1.352,-0.443 4.294,-1.417 6.441,-2.125l3.977,-1.328l0.238,4.073c0.159,2.478 -0.159,4.427 -0.795,5.135Zm1062.05,-7.26c4.056,1.151 8.986,2.39 11.133,2.745c2.068,0.265 3.738,0.796 3.738,1.151c-0,0.619 -20.279,0.353 -22.028,-0.266c-1.034,-0.354 -1.511,-5.755 -0.557,-5.755c0.239,-0 3.738,0.974 7.714,2.125Zm57.019,-0.62c-0,0.443 -1.432,1.594 -3.181,2.657c-3.181,2.124 -8.509,2.566 -11.531,1.15c-1.432,-0.708 -1.352,-0.797 0.557,-0.797c2.306,-0.088 10.974,-2.39 11.61,-3.187c0.636,-0.708 2.545,-0.531 2.545,0.177Zm-574.166,2.922c1.989,0.443 7.158,0.797 11.611,0.797c4.374,0.088 8.27,0.353 8.589,0.708c1.272,1.505 -7.635,2.922 -17.734,2.922c-5.885,-0.089 -10.975,-0.266 -11.373,-0.532c-0.317,-0.265 -0.635,-1.682 -0.635,-3.187c-0,-2.656 0.079,-2.656 3.021,-2.036c1.591,0.354 4.534,0.974 6.521,1.328Zm288.673,0.885c6.362,0.354 11.77,0.531 12.088,0.354c0.318,-0.177 0.716,0 0.955,0.443c0.636,1.151 -5.647,1.505 -18.212,0.974c-10.099,-0.443 -11.133,-0.62 -11.372,-2.125c-0.318,-1.505 0,-1.594 2.307,-1.062c1.511,0.354 7.873,0.974 14.234,1.416Zm-597.227,1.24c0,1.77 -0.477,2.125 -3.181,2.656c-1.829,0.265 -3.976,1.063 -4.851,1.682c-1.352,0.886 -1.749,0.797 -2.386,-0.531c-0.715,-1.328 -2.067,-1.505 -10.656,-1.505c-9.384,-0 -9.94,-0.089 -9.94,-1.771c-0,-1.682 0.636,-1.771 14.552,-2.037c7.953,-0.088 14.951,-0.265 15.508,-0.442c0.556,-0.089 0.954,0.708 0.954,1.948Zm-517.862,1.151c-0.239,2.213 -0.716,2.568 -4.056,3.276c-3.26,0.62 -4.851,0.354 -10.497,-1.771c-3.658,-1.328 -6.442,-2.834 -6.283,-3.187c0.239,-0.355 5.09,-0.709 10.736,-0.709l10.338,0l-0.238,2.391Z" style="fill-rule:nonzero;"/></g><g><path d="M1901.65,1442.4c-0.875,0.708 -1.193,1.328 -0.796,1.328c0.478,0 1.511,-0.62 2.386,-1.328c0.795,-0.708 1.193,-1.24 0.716,-1.24c-0.398,0 -1.511,0.532 -2.306,1.24Z" style="fill-rule:nonzero;"/></g></g></g></svg>